<?xml version="1.0" encoding="UTF-8" standalone="no"?>
<svg width="67px" height="60px" viewBox="0 0 67 60" version="1.1" xmlns="http://www.w3.org/2000/svg" xmlns:xlink="http://www.w3.org/1999/xlink">
    <g id="Symbols" stroke="none" stroke-width="1" fill="none" fill-rule="evenodd">
        <g id="360-label-test" transform="translate(-553.000000, -20.000000)" fill="#FFFFFF">
            <g id="4-3" transform="translate(553.000000, 20.000000)">
                <g id="eq-spectrum">
                    <rect id="Rectangle-3" x="0" y="9.5" width="4" height="20.5"></rect>
                    <rect id="Rectangle-3" x="56" y="18.5" width="4" height="11.5"></rect>
                    <rect id="Rectangle-3" x="63" y="23.5" width="4" height="6.5"></rect>
                    <rect id="Rectangle-3" x="49" y="21" width="4" height="9"></rect>
                    <rect id="Rectangle-3" x="42" y="25" width="4" height="5"></rect>
                    <rect id="Rectangle-3" x="35" y="22.5" width="4" height="7.5"></rect>
                    <rect id="Rectangle-3" x="28" y="15" width="4" height="15"></rect>
                    <rect id="Rectangle-3" x="21" y="7.5" width="4" height="22.5"></rect>
                    <rect id="Rectangle-3" x="14" y="4" width="4" height="26"></rect>
                    <rect id="Rectangle-3" x="7" y="0" width="4" height="30"></rect>
                    <rect id="Rectangle-3" transform="translate(2.000000, 40.250000) scale(1, -1) translate(-2.000000, -40.250000) " x="0" y="30" width="4" height="20.5"></rect>
                    <rect id="Rectangle-3" transform="translate(58.000000, 35.750000) scale(1, -1) translate(-58.000000, -35.750000) " x="56" y="30" width="4" height="11.5"></rect>
                    <rect id="Rectangle-3" transform="translate(65.000000, 33.250000) scale(1, -1) translate(-65.000000, -33.250000) " x="63" y="30" width="4" height="6.5"></rect>
                    <rect id="Rectangle-3" transform="translate(51.000000, 34.500000) scale(1, -1) translate(-51.000000, -34.500000) " x="49" y="30" width="4" height="9"></rect>
                    <rect id="Rectangle-3" transform="translate(44.000000, 32.500000) scale(1, -1) translate(-44.000000, -32.500000) " x="42" y="30" width="4" height="5"></rect>
                    <rect id="Rectangle-3" transform="translate(37.000000, 33.750000) scale(1, -1) translate(-37.000000, -33.750000) " x="35" y="30" width="4" height="7.5"></rect>
                    <rect id="Rectangle-3" transform="translate(30.000000, 37.500000) scale(1, -1) translate(-30.000000, -37.500000) " x="28" y="30" width="4" height="15"></rect>
                    <rect id="Rectangle-3" transform="translate(23.000000, 41.250000) scale(1, -1) translate(-23.000000, -41.250000) " x="21" y="30" width="4" height="22.5"></rect>
                    <rect id="Rectangle-3" transform="translate(16.000000, 43.000000) scale(1, -1) translate(-16.000000, -43.000000) " x="14" y="30" width="4" height="26"></rect>
                    <rect id="Rectangle-3" transform="translate(9.000000, 45.000000) scale(1, -1) translate(-9.000000, -45.000000) " x="7" y="30" width="4" height="30"></rect>
                </g>
            </g>
        </g>
    </g>
</svg>
