<?xml version="1.0" encoding="UTF-8" standalone="no"?>
<svg width="223px" height="63px" viewBox="0 0 223 63" version="1.1" xmlns="http://www.w3.org/2000/svg" xmlns:xlink="http://www.w3.org/1999/xlink">
    <!-- Generator: Sketch 45.2 (43514) - http://www.bohemiancoding.com/sketch -->
    <title>ArtTracks-logo</title>
    <desc>Created with Sketch.</desc>
    <defs>
        <polygon id="path-1" points="3.13878375e-05 3.21682075e-14 222.785863 7.7513753e-15 222.785863 62.50545 3.13878375e-05 62.50545 3.13878375e-05 -8.52651283e-15"></polygon>
    </defs>
    <g id="Sign-up---Log-in---Forgot/Reset-Password" stroke="none" stroke-width="1" fill="none" fill-rule="evenodd">
        <g id="Sign-Up" transform="translate(-567.000000, -205.000000)">
            <g id="ArtTracks-logo" transform="translate(567.000000, 205.000000)">
                <g id="new-logo">
                    <mask id="mask-2" fill="white">
                        <use xlink:href="#path-1"></use>
                    </mask>
                    <g id="Clip-2"></g>
                    <path d="M201.79696,53.0892982 C200.728847,51.2482664 202.657797,49.2898255 206.488251,49.7482936 C204.58303,53.5497709 203.093791,54.68148 201.79696,53.0892982 M131.314379,28.9087527 C131.470765,27.2948073 132.435383,21.7158709 129.43203,23.0408755 C127.843584,23.7416073 126.956444,25.82433 126.400374,28.5688391 C125.039502,36.1944164 125.378291,40.1823164 127.438468,40.5903845 C128.39022,40.7318482 129.3617,39.1955073 130.330034,35.9026118 C130.812057,33.6094118 131.032198,31.8273709 131.314379,28.9087527 M12.277265,41.2352755 C10.0981547,42.6164073 2.34604577,46.9124345 3.44732269,50.0126073 C4.31159064,52.4484164 7.71319833,51.6036436 9.11323808,49.4450345 C10.3048586,47.6085845 12.1002945,41.9537618 12.277265,41.2352755 M24.4161842,31.9871618 C24.0396573,29.7540982 24.1671676,29.7939027 24.0631009,28.0281845 C24.0107817,24.8034436 24.115706,21.7384936 24.4219022,18.8794391 C22.3297047,24.4958891 21.1632432,27.4803709 19.650274,32.9267209 C21.4845919,32.4642436 22.376306,32.1844664 24.4161842,31.9871618 M88.2676599,62.1352391 C83.5492086,64.2454527 77.0724881,56.7836755 87.6675612,53.6812118 C104.633287,48.71223 120.869402,50.5761709 136.091725,58.2719073 C138.249393,60.19398 137.644434,60.7758709 134.276848,60.01758 C118.1894,54.5059391 102.853289,55.2109664 88.2676599,62.1352391 M91.4599906,4.38285273 C92.7999919,4.30324364 94.1385637,4.22735727 95.4768496,4.15576636 C108.264184,3.36798 120.756473,3.36282545 130.980737,3.39289364 C146.160175,3.43756636 155.105334,4.89372545 159.893544,5.58958909 C170.771084,7.17003 170.259328,15.21828 160.20117,14.3643436 C136.772161,12.3749755 113.777716,10.4918482 90.6651958,10.2807982 C88.8497471,19.3748482 87.3239124,31.8451255 87.6120971,40.37103 C87.6709919,42.1149845 88.774556,42.0030164 89.7823445,41.2407164 C92.5789932,38.9214573 95.2458445,31.3454209 95.8079188,28.9531391 C96.083524,27.78048 96.9492214,25.4615073 96.0317765,23.6442436 C95.1068983,21.8100845 93.0610163,20.6514573 93.8443753,18.5392391 C95.512015,15.7563573 98.0936688,19.1500527 103.0923,19.0020027 C106.722625,19.1245664 108.446301,19.18098 108.446301,19.1663755 C113.646489,18.9249709 115.532269,20.6746527 114.217998,24.3902209 C113.486387,26.5826209 107.716119,41.8555391 111.03596,42.0585709 C112.65128,41.7017618 114.238011,39.8759073 115.638337,36.6182345 C115.211778,32.4482073 115.634906,28.9379618 116.875129,26.14248 C118.129075,23.31378 120.291032,21.2522482 123.326691,19.8499255 C127.40416,18.5526982 130.986169,18.7548709 133.984947,20.4461345 C135.686323,19.1786891 137.538366,18.6099709 139.464743,19.0956436 C144.041675,20.2514073 142.633059,23.1055936 141.431146,28.0307618 C140.740132,30.7569436 140.158044,33.9447436 139.683169,37.5898664 C139.346382,41.2381391 139.7535,43.1725255 140.977427,43.4039073 C142.723402,43.4683391 144.353018,41.9042209 145.820815,38.7410482 C145.331644,33.9556255 145.975771,30.0699573 147.817809,27.0949255 C154.649042,16.0725027 171.753714,21.5337436 169.45081,32.9209936 C168.095942,39.6196118 161.03885,37.1147891 161.817062,31.7469027 C162.365986,29.2701436 162.954934,24.3976664 160.297232,23.5474527 C158.323682,23.4890345 157.090606,26.9107936 156.444478,30.7755573 C155.79692,34.6454755 155.689994,38.98818 156.031356,40.7914118 C157.451694,47.2938709 162.098671,47.8628755 170.080642,42.5631436 C170.429437,37.9904891 170.973214,33.2694982 171.353457,28.9571482 C171.732271,24.6539618 172.07735,20.7691527 172.277192,17.94303 C172.676305,12.3099709 174.303919,8.86415727 176.348086,7.51423909 C179.627043,5.34732545 187.225053,5.06955273 184.258868,15.1590027 C182.633541,20.6875391 178.920305,23.75478 178.35823,35.9000345 C183.306829,28.1066482 189.86646,23.6528345 194.742727,25.8864709 C198.068286,28.6736482 198.696402,31.20453 196.68883,35.8797027 C194.603494,38.8129255 192.871814,40.24818 190.246418,41.5013073 C190.173228,41.53653 190.100038,41.5700345 190.026848,41.6041118 C189.246634,42.0660164 189.04765,43.3469209 189.43018,45.4471118 C190.097179,48.8514027 190.959446,49.7772164 192.155069,49.9481755 C194.128619,50.0157573 195.380564,49.1008255 197.149983,46.7744073 C199.097802,44.21403 201.09451,41.3684345 202.144897,37.12338 C199.775665,33.9352936 199.738784,31.3388345 201.035901,29.1206618 C202.393628,27.5748709 211.684437,28.6690664 211.689583,32.1472391 C210.589164,34.9673482 208.968125,33.8637027 210.173183,35.59878 C214.408182,40.2037936 216.971824,42.1364618 216.892344,47.0149527 C218.344132,47.03958 219.714438,46.2821482 220.935792,44.7208936 C220.985538,44.33058 221.175374,43.9943891 221.513305,43.8520664 C221.813211,43.7272118 222.194884,43.8457664 222.463056,44.1461618 C222.709786,44.4308073 222.885898,44.88813 222.722651,45.2475164 C221.301169,48.3542755 219.825652,50.2958209 216.962675,50.6663755 C214.38531,57.5267891 209.694591,58.7504209 203.789665,57.32118 C198.616351,55.2791209 197.765234,52.4209255 201.347815,48.7826755 C203.314218,47.5839573 205.362673,47.0309891 207.404266,47.1632891 C208.639629,44.4371073 207.955191,42.70833 205.271471,39.4091345 C202.690675,44.67708 200.299429,47.6392255 197.784675,50.2457073 C195.176433,52.9504118 193.206028,54.1740436 191.02606,54.2633891 C186.683564,54.3639027 183.707943,51.6780982 181.846465,46.2091255 C180.804941,42.8291755 181.129148,40.8045845 182.819088,40.1373573 C185.030219,39.4420664 186.835661,38.4088664 188.234557,36.9796255 C190.081169,34.3270391 190.219257,32.3116118 188.62252,31.0055073 C187.136139,30.0625118 185.537973,30.8165073 183.784564,33.2042073 C182.262732,35.2677436 180.986486,37.6394073 179.683651,40.3415345 C178.21957,49.0793482 174.801666,52.0907482 169.703543,49.49973 C169.754433,47.1286391 169.791028,45.96543 169.791028,45.96543 C166.466898,48.7451618 162.142128,49.7783618 156.818146,49.0945255 C152.654621,48.0684845 149.348503,45.5421845 146.899506,41.4279982 C144.334434,45.4179027 141.521775,47.2357391 138.370328,46.9087118 C134.475261,46.2334664 132.15263,43.0834664 131.310662,37.46988 C129.97352,43.0997891 127.356701,45.62838 123.594291,45.1862345 C120.285314,44.7784527 117.96983,42.9145118 116.693584,39.5591891 C113.961262,44.1395755 111.057402,46.0350164 107.8645,45.3766664 C101.654807,44.2229073 102.138832,35.2946618 103.174066,30.43908 C103.818765,27.4110709 104.291068,26.7160664 101.4198,26.56458 C100.954073,26.5402391 101.048133,26.5270664 100.571542,26.5244891 C100.270778,28.94283 99.3664842,31.9015391 98.4547573,34.1821391 C97.2562753,37.5523527 94.3263983,42.5402345 91.1269201,44.4399709 C87.127215,46.8729164 84.0255137,46.4141618 82.0019317,42.7263709 C79.3393688,37.8727936 79.1506765,21.09303 80.1147227,10.3910482 C78.5294214,10.4403027 76.9441201,10.50588 75.3573894,10.5889255 C74.9268278,12.9033164 74.5597355,19.13058 74.3192958,21.3868391 C74.0388304,24.0150845 73.8258368,26.6585073 73.7763765,29.0081209 C73.7094765,32.6658436 73.8710086,36.2677255 74.2146573,39.8151982 C75.0085945,43.7504073 76.2310919,44.0390618 78.0631227,40.6914709 C79.3879714,39.9987573 79.7173253,40.8776073 78.9165265,43.3549391 C75.018315,48.7826755 70.9228342,47.5553209 66.6380894,39.6462436 C65.1176868,45.3969982 62.5185932,48.2437391 58.705865,48.2781027 C55.8260201,48.0713482 53.7018022,46.51353 52.4292727,43.6335709 C51.1373022,40.7138073 51.7774265,35.97363 52.4341329,30.3053482 C52.6745727,29.1450027 50.7822176,29.3569118 48.8449765,30.0207027 C48.2969112,36.0592527 47.2711112,40.7842527 46.0674829,44.2672936 C44.8750047,47.7176891 43.2096522,49.9378664 40.9973778,50.8590982 C31.2888727,54.0915709 26.9889753,45.0579436 25.1852483,36.3900027 C22.8128714,37.01628 20.3289945,37.9246255 18.0212304,38.9592573 C17.1103612,42.5920664 15.9624829,49.6483527 13.0105919,54.1840664 C10.6485073,57.81258 5.80654833,59.0012755 2.38492782,56.6298982 C-1.07414526,54.2344664 -1.32945167,45.95598 5.39457013,40.4709709 C7.53165346,38.7278755 10.5939009,36.2356527 13.9403304,34.5360845 C19.0138663,15.9591027 28.1440009,-6.56024727 39.4649676,1.86485727 C38.5023509,4.52861182 37.610065,7.17289364 36.8512932,9.82261636 C36.0956663,12.4614573 35.4278099,15.12063 34.8971842,17.76033 C34.3677022,20.3931573 33.9608701,23.0308527 33.6921265,25.6550891 C33.5471765,27.0660027 33.2235406,28.1699345 33.3862163,31.4645482 C35.8469355,31.4645482 37.9857342,31.7993073 40.734924,31.8920891 C43.511274,31.9934618 43.1427522,35.2817755 41.356465,35.2502755 C38.4871983,35.1239891 36.3646958,34.9859618 33.7321522,35.0188936 C34.3036612,43.2157664 37.2975791,51.9111982 42.0091688,44.3091027 C43.3943419,42.0734618 43.9678522,39.8718982 44.4535919,37.2161618 C44.7369163,35.6655027 45.0705586,33.9395891 45.2312329,32.2056573 C45.3993406,30.3926891 45.936256,29.0109845 43.2842714,26.97723 C40.8938829,25.1453618 40.6766009,22.7367573 41.4327996,21.8209664 C42.8082522,20.1546164 45.4668124,22.2032618 51.4860971,21.6880936 C54.5757906,21.42063 57.1428637,21.1614709 59.2556458,20.9905118 C62.4994381,21.1239573 63.4531919,22.96413 62.2072509,26.5940755 C62.2072509,26.5940755 61.5150932,29.4479755 60.2677227,35.1806891 C59.2539304,40.3243527 59.3308368,43.4196573 60.4080983,44.4010255 C62.2575688,45.4783255 63.8771778,42.8160027 65.3589842,36.42093 C64.7628881,33.1308982 64.9244201,29.3895573 64.7114265,26.2344027 C64.5973535,23.7304391 64.5630458,15.7603664 65.3827137,11.3612482 C65.2114612,11.3787164 65.0399227,11.3950391 64.8678124,11.4133664 C55.0749676,12.4686164 47.2022099,14.24808 40.6631637,16.3634482 C36.904756,17.6139982 36.4373137,13.7432209 38.8314188,12.7604209 C46.1664035,9.75016636 55.2673765,8.36559818 65.4333176,6.58384364 L65.7698188,6.54461182 C66.8645201,2.92497545 69.0499201,0.108875455 72.2965714,0.00320727273 C75.8717188,-0.11277 76.3099996,2.87428909 75.9700676,5.52716182 C77.4618804,5.39314364 78.9562663,5.26628455 80.4523676,5.14629818" id="Fill-1" fill="#0EBAED" mask="url(#mask-2)"></path>
                </g>
            </g>
        </g>
    </g>
</svg>